<?xml version="1.0" encoding="utf-8"?>
<!-- Generator: Adobe Illustrator 25.0.1, SVG Export Plug-In . SVG Version: 6.00 Build 0)  -->
<svg version="1.1" id="Layer_1" xmlns="http://www.w3.org/2000/svg" xmlns:xlink="http://www.w3.org/1999/xlink" x="0px" y="0px"
	 viewBox="0 0 682.7 255.5" style="enable-background:new 0 0 682.7 255.5;" xml:space="preserve">
<style type="text/css">
	.st0{fill:url(#SVGID_1_);}
	.st1{fill:url(#SVGID_2_);}
	.st2{fill:url(#SVGID_3_);}
	.st3{fill:none;}
	.st4{fill:#5B5B5F;}
	.st5{fill:url(#SVGID_4_);}
	.st6{fill:#999999;}
	.st7{fill:#E2E2E2;}
	.st8{fill:#FFFFFF;}
	.st9{fill:none;stroke:#5B5B5F;stroke-miterlimit:10;}
	.st10{fill:url(#SVGID_5_);}
	.st11{fill:url(#SVGID_6_);}
	.st12{fill:url(#SVGID_7_);}
	.st13{opacity:2.000000e-02;fill:#842F9D;}
	.st14{opacity:0.2;fill:#842F9D;}
	.st15{opacity:0.4;fill:#842F9D;}
	.st16{fill:url(#SVGID_8_);}
	.st17{opacity:0.32;fill:#A24ACC;}
	.st18{opacity:0.51;fill:#A24ACC;}
	.st19{opacity:0.69;fill:#A24ACC;}
	.st20{fill:url(#SVGID_9_);}
</style>
<linearGradient id="SVGID_1_" gradientUnits="userSpaceOnUse" x1="681.1" y1="127.75" x2="-9.094947e-13" y2="127.75">
	<stop  offset="0" style="stop-color:#4A1185"/>
	<stop  offset="1" style="stop-color:#842F9D"/>
</linearGradient>
<path class="st0" d="M644.4,255.5H36.7C16.4,255.5,0,239.1,0,218.8V36.7C0,16.4,16.4,0,36.7,0h607.7c20.3,0,36.7,16.4,36.7,36.7
	v182.1C681.1,239.1,664.7,255.5,644.4,255.5z"/>
<linearGradient id="SVGID_2_" gradientUnits="userSpaceOnUse" x1="655.9326" y1="335.6336" x2="57.7246" y2="681.0092">
	<stop  offset="0" style="stop-color:#4A1185"/>
	<stop  offset="1" style="stop-color:#842F9D"/>
</linearGradient>
<path class="st1" d="M660.7,636.1H53c-20.3,0-36.7-16.4-36.7-36.7V417.3c0-20.3,16.4-36.7,36.7-36.7h607.7
	c20.3,0,36.7,16.4,36.7,36.7v182.1C697.4,619.6,681,636.1,660.7,636.1z"/>
<g id="BACKGROUND">
</g>
<linearGradient id="SVGID_3_" gradientUnits="userSpaceOnUse" x1="-1394.3629" y1="-465.337" x2="-229.3458" y2="-1630.3541" gradientTransform="matrix(1 0 0 -1 0 256)">
	<stop  offset="0" style="stop-color:#F2F2F2"/>
	<stop  offset="0.3175" style="stop-color:#EBEBEB"/>
	<stop  offset="0.7759" style="stop-color:#D8D8D8"/>
	<stop  offset="1" style="stop-color:#CCCCCC"/>
</linearGradient>
<rect x="-1634" y="681.6" class="st2" width="1199.8" height="800"/>
<path class="st3" d="M-1306.6,1356.5h-170.5c-12.2,0-22.2-9.9-22.2-22.2V829.5c0-12.2,9.9-22.2,22.2-22.2h170.5
	c12.2,0,22.2,9.9,22.2,22.2v504.8C-1284.4,1346.6-1294.3,1356.5-1306.6,1356.5z"/>
<rect x="-1634" y="681.6" class="st3" width="1199.8" height="800"/>
<g>
	<g>
		<g>
			<path class="st4" d="M-1128.5,725.9h3l2.7,7.3c0.3,1,0.6,2,1,2.9h0.1c0.3-1,0.6-2,0.9-2.9l2.6-7.3h3v15h-2.4V734
				c0-1.4,0.2-3.4,0.3-4.8h-0.1l-1.2,3.5l-2.5,6.7h-1.6l-2.5-6.7l-1.2-3.5h-0.1c0.1,1.4,0.3,3.4,0.3,4.8v6.9h-2.4L-1128.5,725.9
				L-1128.5,725.9z"/>
			<path class="st4" d="M-1112.2,733.3c0-4.9,2.7-7.7,6.6-7.7s6.6,2.9,6.6,7.7c0,4.9-2.7,7.8-6.6,7.8
				C-1109.5,741.2-1112.2,738.2-1112.2,733.3z M-1101.7,733.3c0-3.4-1.5-5.4-3.9-5.4s-3.9,2-3.9,5.4s1.5,5.5,3.9,5.5
				C-1103.2,738.9-1101.7,736.7-1101.7,733.3z"/>
			<path class="st4" d="M-1095.9,725.9h4c4.6,0,7.3,2.5,7.3,7.4c0,5-2.7,7.6-7.2,7.6h-4.1L-1095.9,725.9L-1095.9,725.9z
				 M-1092.1,738.7c3,0,4.8-1.7,4.8-5.4s-1.7-5.3-4.8-5.3h-1.2v10.7H-1092.1z"/>
			<path class="st4" d="M-1081.6,725.9h9v2.2h-6.4v3.8h5.4v2.2h-5.4v4.4h6.6v2.2h-9.3v-14.8H-1081.6z"/>
			<path class="st4" d="M-1069.2,725.9h5.1c3.1,0,5.5,1.1,5.5,4.5c0,3.2-2.4,4.7-5.5,4.7h-2.4v5.9h-2.7V725.9z M-1064.5,732.9
				c2.1,0,3.2-0.9,3.2-2.6c0-1.7-1.1-2.3-3.2-2.3h-2.1v4.9L-1064.5,732.9L-1064.5,732.9z M-1064.7,734.3l1.9-1.6l4.7,8.2h-3
				L-1064.7,734.3z"/>
			<path class="st4" d="M-1055.7,725.9h2.7l4.7,8.4l1.6,3.2h0.1c-0.1-1.6-0.3-3.5-0.3-5.1v-6.5h2.5v15h-2.7l-4.7-8.5l-1.6-3.2h-0.1
				c0.1,1.6,0.3,3.4,0.3,5.1v6.6h-2.5V725.9z"/>
			<path class="st4" d="M-1036,725.9h4.8c3.1,0,5.4,0.9,5.4,3.7c0,1.4-0.8,2.8-2.1,3.2v0.1c1.7,0.4,2.9,1.5,2.9,3.6
				c0,3-2.5,4.4-5.8,4.4h-5.2L-1036,725.9L-1036,725.9z M-1031.5,732.1c2.1,0,3-0.8,3-2.1c0-1.5-1-2-2.9-2h-2v4.1H-1031.5z
				 M-1031.1,738.8c2.2,0,3.4-0.8,3.4-2.5c0-1.6-1.2-2.3-3.4-2.3h-2.2v4.7L-1031.1,738.8L-1031.1,738.8z"/>
			<path class="st4" d="M-1022.4,734.3v-8.4h2.7v8.6c0,3.3,1.2,4.3,3,4.3s3.1-1.1,3.1-4.3v-8.6h2.6v8.4c0,4.9-2.2,6.9-5.7,6.9
				C-1020.2,741.2-1022.4,739.2-1022.4,734.3z"/>
			<path class="st4" d="M-1008.3,739l1.6-1.8c1.1,1,2.5,1.7,3.9,1.7c1.7,0,2.6-0.8,2.6-1.9c0-1.2-1-1.6-2.3-2.2l-2.1-0.9
				c-1.5-0.6-3-1.8-3-4c0-2.4,2.1-4.2,5-4.2c1.8,0,3.5,0.7,4.6,1.9l-1.4,1.7c-1-0.8-2-1.3-3.3-1.3c-1.4,0-2.4,0.7-2.4,1.8
				c0,1.2,1.1,1.6,2.4,2.1l2,0.8c1.8,0.7,3,1.9,3,4c0,2.4-2,4.5-5.4,4.5C-1004.9,741.2-1006.9,740.4-1008.3,739z"/>
			<path class="st4" d="M-994.8,725.9h2.7v15h-2.7V725.9z"/>
			<path class="st4" d="M-988.3,725.9h2.7l4.7,8.4l1.6,3.2h0.1c-0.1-1.6-0.3-3.5-0.3-5.1v-6.5h2.5v15h-2.7l-4.7-8.5l-1.6-3.2h-0.1
				c0.1,1.6,0.3,3.4,0.3,5.1v6.6h-2.5V725.9z"/>
			<path class="st4" d="M-973.3,725.9h9v2.2h-6.4v3.8h5.4v2.2h-5.4v4.4h6.6v2.2h-9.3v-14.8H-973.3z"/>
			<path class="st4" d="M-961.9,739l1.6-1.8c1.1,1,2.5,1.7,3.9,1.7c1.7,0,2.6-0.8,2.6-1.9c0-1.2-1-1.6-2.3-2.2l-2.1-0.9
				c-1.5-0.6-3-1.8-3-4c0-2.4,2.1-4.2,5-4.2c1.8,0,3.5,0.7,4.6,1.9l-1.4,1.7c-1-0.8-2-1.3-3.3-1.3c-1.4,0-2.4,0.7-2.4,1.8
				c0,1.2,1.1,1.6,2.4,2.1l2,0.8c1.8,0.7,3,1.9,3,4c0,2.4-2,4.5-5.4,4.5C-958.6,741.2-960.5,740.4-961.9,739z"/>
			<path class="st4" d="M-949.4,739l1.6-1.8c1.1,1,2.5,1.7,3.9,1.7c1.7,0,2.6-0.8,2.6-1.9c0-1.2-1-1.6-2.3-2.2l-2.1-0.9
				c-1.5-0.6-3-1.8-3-4c0-2.4,2.1-4.2,5-4.2c1.8,0,3.5,0.7,4.6,1.9l-1.4,1.7c-1-0.8-2-1.3-3.3-1.3c-1.4,0-2.4,0.7-2.4,1.8
				c0,1.2,1.1,1.6,2.4,2.1l2,0.8c1.8,0.7,3,1.9,3,4c0,2.4-2,4.5-5.4,4.5C-946.1,741.2-948,740.4-949.4,739z"/>
		</g>
	</g>
	<g>
		<g>
			<path class="st4" d="M-1109.5,757.5l0.4-0.4c0.8,0.9,1.9,1.5,3.2,1.5c1.7,0,2.8-0.9,2.8-2.3c0-1.4-0.9-1.9-2-2.3l-1.6-0.7
				c-0.9-0.4-2.1-1-2.1-2.6c0-1.5,1.3-2.5,3-2.5c1.3,0,2.3,0.6,2.9,1.2l-0.3,0.4c-0.6-0.7-1.5-1.1-2.6-1.1c-1.5,0-2.5,0.8-2.5,2
				c0,1.3,1.1,1.8,1.9,2.1l1.6,0.7c1.2,0.5,2.2,1.2,2.2,2.8s-1.3,2.8-3.3,2.8C-1107.6,759.1-1108.7,758.4-1109.5,757.5z"/>
			<path class="st4" d="M-1096.5,748.8h-3.4v-0.4h7.4v0.4h-3.4v10.1h-0.5L-1096.5,748.8L-1096.5,748.8z"/>
			<path class="st4" d="M-1088.9,748.3h5.7v0.4h-5.2v4.3h4.3v0.4h-4.3v5h5.3v0.4h-5.8V748.3z"/>
			<path class="st4" d="M-1079.1,748.3h2.5c2.4,0,3.8,0.8,3.8,2.9c0,2-1.3,3-3.7,3h-2.1v4.7h-0.5L-1079.1,748.3L-1079.1,748.3z
				 M-1076.7,753.8c2.3,0,3.4-0.7,3.4-2.6c0-1.9-1.1-2.4-3.4-2.4h-1.8v5H-1076.7z"/>
			<path class="st4" d="M-1064.1,748.3h0.5v10.6h-0.5V748.3z"/>
			<path class="st4" d="M-1058.8,748.3h0.5l4.7,7.7l1.2,2.1h0.1c0-1-0.1-2-0.1-3v-6.9h0.5v10.6h-0.5l-4.7-7.7l-1.2-2.1h-0.1
				c0,1,0.1,1.9,0.1,2.9v6.9h-0.5V748.3z"/>
			<path class="st4" d="M-1047,748.3h5.6v0.4h-5.1v4.4h4.3v0.4h-4.3v5.2h-0.5V748.3z"/>
			<path class="st4" d="M-1038.6,753.6c0-3.3,1.8-5.4,4.3-5.4s4.3,2.1,4.3,5.4s-1.8,5.5-4.3,5.5S-1038.6,756.9-1038.6,753.6z
				 M-1030.6,753.6c0-3-1.5-5-3.7-5s-3.7,1.9-3.7,5s1.5,5,3.7,5S-1030.6,756.6-1030.6,753.6z"/>
			<path class="st4" d="M-1026.7,753.6c0-3.3,1.8-5.4,4.6-5.4c1.4,0,2.3,0.7,2.8,1.2l-0.3,0.4c-0.5-0.6-1.3-1.1-2.5-1.1
				c-2.5,0-4.1,1.9-4.1,5s1.5,5,3.9,5c1,0,2-0.3,2.5-0.9v-3.5h-2.6v-0.4h3.1v4.1c-0.6,0.7-1.7,1.2-3.1,1.2
				C-1024.9,759.1-1026.7,756.9-1026.7,753.6z"/>
			<path class="st4" d="M-1014.8,748.3h2.9c2.1,0,3.4,0.8,3.4,2.7s-1.3,2.8-3.4,2.8h-2.4v5h-0.5V748.3z M-1012,753.5
				c2,0,3-0.8,3-2.4c0-1.7-1.1-2.3-3-2.3h-2.2v4.7H-1012z M-1012,753.8h0.6l3.1,5.2h-0.6L-1012,753.8z"/>
			<path class="st4" d="M-1002.3,748.3h0.4l3.8,10.6h-0.5l-2.2-6.3c-0.4-1.3-0.8-2.4-1.2-3.7h-0.1c-0.4,1.3-0.8,2.4-1.2,3.7
				l-2.2,6.3h-0.5L-1002.3,748.3z M-1004.4,754.7h4.7v0.4h-4.7V754.7z"/>
			<path class="st4" d="M-994.7,748.3h2.5c2.4,0,3.8,0.8,3.8,2.9c0,2-1.3,3-3.7,3h-2.1v4.7h-0.5V748.3z M-992.3,753.8
				c2.3,0,3.4-0.7,3.4-2.6c0-1.9-1.1-2.4-3.4-2.4h-1.8v5H-992.3z"/>
			<path class="st4" d="M-984.4,748.3h0.5v4.7h5.9v-4.7h0.5v10.6h-0.5v-5.4h-5.9v5.4h-0.5V748.3z"/>
			<path class="st4" d="M-972.7,748.3h0.5v10.6h-0.5V748.3z"/>
			<path class="st4" d="M-968.1,753.6c0-3.3,1.8-5.4,4.4-5.4c1.2,0,2.1,0.6,2.7,1.2l-0.3,0.4c-0.6-0.7-1.4-1.1-2.4-1.1
				c-2.4,0-3.9,1.9-3.9,5s1.5,5,3.8,5c1.1,0,2-0.4,2.8-1.3l0.3,0.3c-0.8,0.9-1.7,1.5-3.1,1.5C-966.3,759.1-968.1,756.9-968.1,753.6z
				"/>
		</g>
	</g>
</g>
<g>
	<g>
		
			<linearGradient id="SVGID_4_" gradientUnits="userSpaceOnUse" x1="-1576.9078" y1="-825.4809" x2="-1307.4379" y2="-825.4809" gradientTransform="matrix(1 0 0 -1 0 256)">
			<stop  offset="0" style="stop-color:#FF9100"/>
			<stop  offset="5.925787e-03" style="stop-color:#FF9000"/>
			<stop  offset="0.264" style="stop-color:#FF7100"/>
			<stop  offset="0.5146" style="stop-color:#FF5A00"/>
			<stop  offset="0.752" style="stop-color:#FF4D00"/>
			<stop  offset="0.9624" style="stop-color:#FF4800"/>
		</linearGradient>
		<path class="st5" d="M-1532.9,1244.6l-43.5-272.9c-3.2-20.4,9-40,28.8-46l132.8-40.2c23.2-7,47.4,7.4,52.3,31.1l54.2,263
			c4.2,20.2-7.3,40.4-26.8,47.2l-143.5,50C-1502.9,1285.5-1528.9,1270-1532.9,1244.6z"/>
		<path class="st6" d="M-1553.4,1216.2l8-256.4c0.6-19.1,15.2-34.9,34.3-36.9l128.1-13.4c22.4-2.3,41.9,15,42.3,37.5l3.5,249.2
			c0.3,19.2-13.7,35.6-32.7,38.4l-139.6,20.6C-1533.2,1258.7-1554.2,1240-1553.4,1216.2z"/>
		<path class="st7" d="M-1553.4,1212.5l8-256.4c0.6-19.1,15.2-34.9,34.3-36.9l128.1-13.4c22.4-2.3,41.9,15,42.3,37.5l3.5,249.2
			c0.3,19.2-13.7,35.6-32.7,38.4l-139.6,20.6C-1533.2,1255-1554.2,1236.3-1553.4,1212.5z"/>
		<path class="st8" d="M-1553.4,1214.3l8-256.4c0.6-19.1,15.2-34.9,34.3-36.9l128.1-13.4c22.4-2.3,41.9,15,42.3,37.5l3.5,249.2
			c0.3,19.2-13.7,35.6-32.7,38.4l-139.6,20.6C-1533.2,1256.8-1554.2,1238.1-1553.4,1214.3z"/>
	</g>
	<g>
		<g>
			<g>
				
					<text transform="matrix(1 0 0 1 -1483.2959 1054.2087)" style="fill:#4D4D4D; font-family:'Antonio-Light'; font-size:16.5874px;">YOUR TEXT HERE</text>
				
					<text transform="matrix(1 0 0 1 -1463.8911 1031.0857)" style="fill:#4D4D4D; font-family:'Antonio-Bold'; font-size:51.7818px;">01</text>
				
					<text transform="matrix(1 0 0 1 -1458.2837 977.9402)" style="fill:#4D4D4D; font-family:'Antonio-Light'; font-size:22.0029px;">STEP</text>
			</g>
		</g>
		<g>
			<g>
				
					<text transform="matrix(1 0 0 1 -1489.3853 1110.1326)" style="fill:#4D4D4D; font-family:'Antonio-Light'; font-size:12.1428px; letter-spacing:1;">YOUR TEXT HERE</text>
			</g>
			<g>
				
					<text transform="matrix(1 0 0 1 -1469.9282 1094.4836)" style="fill:#4D4D4D; font-family:'Antonio-Bold'; font-size:16.9504px;">OPTION A</text>
			</g>
			<rect x="-1487.4" y="1139.8" class="st3" width="89.6" height="63"/>
			
				<text transform="matrix(1 0 0 1 -1483.7998 1147.2971)" style="fill:#4D4D4D; font-family:'Antonio-Light'; font-size:8.5833px;">Lorem ipsum dolor sit amet, </text>
			
				<text transform="matrix(1 0 0 1 -1484.8998 1157.5972)" style="fill:#4D4D4D; font-family:'Antonio-Light'; font-size:8.5833px;">consectetuer adipiscing elit, </text>
			
				<text transform="matrix(1 0 0 1 -1478.9998 1167.8971)" style="fill:#4D4D4D; font-family:'Antonio-Light'; font-size:8.5833px;">sed diam nonummy nibh </text>
			
				<text transform="matrix(1 0 0 1 -1484.8998 1178.1971)" style="fill:#4D4D4D; font-family:'Antonio-Light'; font-size:8.5833px;">euismod tincidunt ut laoreet </text>
			
				<text transform="matrix(1 0 0 1 -1482.5999 1188.4971)" style="fill:#4D4D4D; font-family:'Antonio-Light'; font-size:8.5833px;">dolore magna aliquam erat </text>
			
				<text transform="matrix(1 0 0 1 -1478.9998 1198.7971)" style="fill:#4D4D4D; font-family:'Antonio-Light'; font-size:8.5833px;">volutpat. Ut wisi enim ad </text>
			<line class="st9" x1="-1456.5" y1="1125.9" x2="-1428.6" y2="1125.9"/>
		</g>
	</g>
</g>
<g>
	<g>
		
			<linearGradient id="SVGID_5_" gradientUnits="userSpaceOnUse" x1="-1304.6078" y1="-825.4809" x2="-1035.1378" y2="-825.4809" gradientTransform="matrix(1 0 0 -1 0 256)">
			<stop  offset="0" style="stop-color:#C50048"/>
			<stop  offset="0.4798" style="stop-color:#E02B6A"/>
			<stop  offset="1" style="stop-color:#FF5E93"/>
		</linearGradient>
		<path class="st10" d="M-1260.6,1244.6l-43.5-272.9c-3.2-20.4,9-40,28.8-46l132.8-40.2c23.2-7,47.4,7.4,52.3,31.1l54.2,263
			c4.2,20.2-7.3,40.4-26.8,47.2l-143.5,50C-1230.5,1285.5-1256.5,1270-1260.6,1244.6z"/>
		<path class="st6" d="M-1281.1,1216.2l8-256.4c0.6-19.1,15.2-34.9,34.3-36.9l128.1-13.4c22.4-2.3,41.9,15,42.3,37.5l3.5,249.2
			c0.3,19.2-13.7,35.6-32.7,38.4l-139.6,20.6C-1260.8,1258.7-1281.8,1240-1281.1,1216.2z"/>
		<path class="st7" d="M-1281.1,1212.5l8-256.4c0.6-19.1,15.2-34.9,34.3-36.9l128.1-13.4c22.4-2.3,41.9,15,42.3,37.5l3.5,249.2
			c0.3,19.2-13.7,35.6-32.7,38.4l-139.6,20.6C-1260.8,1255-1281.8,1236.3-1281.1,1212.5z"/>
		<path class="st8" d="M-1281.1,1214.3l8-256.4c0.6-19.1,15.2-34.9,34.3-36.9l128.1-13.4c22.4-2.3,41.9,15,42.3,37.5l3.5,249.2
			c0.3,19.2-13.7,35.6-32.7,38.4l-139.6,20.6C-1260.8,1256.8-1281.8,1238.1-1281.1,1214.3z"/>
	</g>
	<g>
		<g>
			<g>
				
					<text transform="matrix(1 0 0 1 -1210.9546 1054.2087)" style="fill:#4D4D4D; font-family:'Antonio-Light'; font-size:16.5874px;">YOUR TEXT HERE</text>
				
					<text transform="matrix(1 0 0 1 -1195.0264 1031.0862)" style="fill:#4D4D4D; font-family:'Antonio-Bold'; font-size:51.7818px;">02</text>
				
					<text transform="matrix(1 0 0 1 -1185.9424 977.9402)" style="fill:#4D4D4D; font-family:'Antonio-Light'; font-size:22.0029px;">STEP</text>
			</g>
		</g>
		<g>
			<g>
				
					<text transform="matrix(1 0 0 1 -1217.0439 1110.1326)" style="fill:#4D4D4D; font-family:'Antonio-Light'; font-size:12.1428px; letter-spacing:1;">YOUR TEXT HERE</text>
			</g>
			<g>
				
					<text transform="matrix(1 0 0 1 -1197.6689 1094.4841)" style="fill:#4D4D4D; font-family:'Antonio-Bold'; font-size:16.9504px;">OPTION B</text>
			</g>
			<rect x="-1215" y="1139.8" class="st3" width="89.6" height="63"/>
			
				<text transform="matrix(1 0 0 1 -1211.4585 1147.2971)" style="fill:#4D4D4D; font-family:'Antonio-Light'; font-size:8.5833px;">Lorem ipsum dolor sit amet, </text>
			
				<text transform="matrix(1 0 0 1 -1212.5585 1157.5972)" style="fill:#4D4D4D; font-family:'Antonio-Light'; font-size:8.5833px;">consectetuer adipiscing elit, </text>
			
				<text transform="matrix(1 0 0 1 -1206.6584 1167.8971)" style="fill:#4D4D4D; font-family:'Antonio-Light'; font-size:8.5833px;">sed diam nonummy nibh </text>
			
				<text transform="matrix(1 0 0 1 -1212.5585 1178.1971)" style="fill:#4D4D4D; font-family:'Antonio-Light'; font-size:8.5833px;">euismod tincidunt ut laoreet </text>
			
				<text transform="matrix(1 0 0 1 -1210.2585 1188.4971)" style="fill:#4D4D4D; font-family:'Antonio-Light'; font-size:8.5833px;">dolore magna aliquam erat </text>
			
				<text transform="matrix(1 0 0 1 -1206.6584 1198.7971)" style="fill:#4D4D4D; font-family:'Antonio-Light'; font-size:8.5833px;">volutpat. Ut wisi enim ad </text>
			<line class="st9" x1="-1184.2" y1="1125.9" x2="-1156.3" y2="1125.9"/>
		</g>
	</g>
</g>
<g>
	<g>
		
			<linearGradient id="SVGID_6_" gradientUnits="userSpaceOnUse" x1="-1023.2078" y1="-825.4809" x2="-753.738" y2="-825.4809" gradientTransform="matrix(1 0 0 -1 0 256)">
			<stop  offset="0" style="stop-color:#93DCFC"/>
			<stop  offset="1" style="stop-color:#07A9F0"/>
		</linearGradient>
		<path class="st11" d="M-979.2,1244.6l-43.5-272.9c-3.2-20.4,9-40,28.8-46l132.8-40.2c23.2-7,47.4,7.4,52.3,31.1l54.2,263
			c4.2,20.2-7.3,40.4-26.8,47.2l-143.5,50C-949.1,1285.5-975.1,1270-979.2,1244.6z"/>
		<path class="st6" d="M-999.7,1216.2l8-256.4c0.6-19.1,15.2-34.9,34.3-36.9l128.1-13.4c22.4-2.3,41.9,15,42.3,37.5l3.5,249.2
			c0.3,19.2-13.7,35.6-32.7,38.4l-139.6,20.6C-979.4,1258.7-1000.4,1240-999.7,1216.2z"/>
		<path class="st7" d="M-999.7,1212.5l8-256.4c0.6-19.1,15.2-34.9,34.3-36.9l128.1-13.4c22.4-2.3,41.9,15,42.3,37.5l3.5,249.2
			c0.3,19.2-13.7,35.6-32.7,38.4l-139.6,20.6C-979.4,1255-1000.4,1236.3-999.7,1212.5z"/>
		<path class="st8" d="M-999.7,1214.3l8-256.4c0.6-19.1,15.2-34.9,34.3-36.9l128.1-13.4c22.4-2.3,41.9,15,42.3,37.5l3.5,249.2
			c0.3,19.2-13.7,35.6-32.7,38.4l-139.6,20.6C-979.4,1256.8-1000.4,1238.1-999.7,1214.3z"/>
	</g>
	<g>
		<g>
			<g>
				
					<text transform="matrix(1 0 0 1 -929.5458 1054.2087)" style="fill:#4D4D4D; font-family:'Antonio-Light'; font-size:16.5874px;">YOUR TEXT HERE</text>
				
					<text transform="matrix(1 0 0 1 -913.7324 1031.0862)" style="fill:#4D4D4D; font-family:'Antonio-Bold'; font-size:51.7818px;">03</text>
				
					<text transform="matrix(1 0 0 1 -904.5342 977.9402)" style="fill:#4D4D4D; font-family:'Antonio-Light'; font-size:22.0029px;">STEP</text>
			</g>
		</g>
		<g>
			<g>
				
					<text transform="matrix(1 0 0 1 -935.6367 1110.1326)" style="fill:#4D4D4D; font-family:'Antonio-Light'; font-size:12.1428px; letter-spacing:1;">YOUR TEXT HERE</text>
			</g>
			<g>
				
					<text transform="matrix(1 0 0 1 -916.1161 1094.4841)" style="fill:#4D4D4D; font-family:'Antonio-Bold'; font-size:16.9504px;">OPTION C</text>
			</g>
			<rect x="-933.6" y="1139.8" class="st3" width="89.6" height="63"/>
			<text transform="matrix(1 0 0 1 -930.0508 1147.2971)" style="fill:#4D4D4D; font-family:'Antonio-Light'; font-size:8.5833px;">Lorem ipsum dolor sit amet, </text>
			<text transform="matrix(1 0 0 1 -931.1506 1157.5972)" style="fill:#4D4D4D; font-family:'Antonio-Light'; font-size:8.5833px;">consectetuer adipiscing elit, </text>
			<text transform="matrix(1 0 0 1 -925.2507 1167.8971)" style="fill:#4D4D4D; font-family:'Antonio-Light'; font-size:8.5833px;">sed diam nonummy nibh </text>
			<text transform="matrix(1 0 0 1 -931.1506 1178.1971)" style="fill:#4D4D4D; font-family:'Antonio-Light'; font-size:8.5833px;">euismod tincidunt ut laoreet </text>
			<text transform="matrix(1 0 0 1 -928.8507 1188.4971)" style="fill:#4D4D4D; font-family:'Antonio-Light'; font-size:8.5833px;">dolore magna aliquam erat </text>
			<text transform="matrix(1 0 0 1 -925.2507 1198.7971)" style="fill:#4D4D4D; font-family:'Antonio-Light'; font-size:8.5833px;">volutpat. Ut wisi enim ad </text>
			<line class="st9" x1="-902.8" y1="1125.9" x2="-874.9" y2="1125.9"/>
		</g>
	</g>
</g>
<g>
	<g>
		
			<radialGradient id="SVGID_7_" cx="-625.9729" cy="-825.4809" r="169.205" gradientTransform="matrix(1 0 0 -1 0 256)" gradientUnits="userSpaceOnUse">
			<stop  offset="0" style="stop-color:#339EFF"/>
			<stop  offset="1" style="stop-color:#1A71FC"/>
		</radialGradient>
		<path class="st12" d="M-716.7,1244.6l-43.5-272.9c-3.2-20.4,9-40,28.8-46l132.8-40.2c23.2-7,47.4,7.4,52.3,31.1l54.2,263
			c4.2,20.2-7.3,40.4-26.8,47.2l-143.5,50C-686.6,1285.5-712.6,1270-716.7,1244.6z"/>
		<path class="st6" d="M-737.2,1216.2l8-256.4c0.6-19.1,15.2-34.9,34.3-36.9l128.1-13.4c22.4-2.3,41.9,15,42.3,37.5l3.5,249.2
			c0.3,19.2-13.7,35.6-32.7,38.4l-139.6,20.6C-716.9,1258.7-737.9,1240-737.2,1216.2z"/>
		<path class="st7" d="M-737.2,1212.5l8-256.4c0.6-19.1,15.2-34.9,34.3-36.9l128.1-13.4c22.4-2.3,41.9,15,42.3,37.5l3.5,249.2
			c0.3,19.2-13.7,35.6-32.7,38.4l-139.6,20.6C-716.9,1255-737.9,1236.3-737.2,1212.5z"/>
		<path class="st8" d="M-737.2,1214.3l8-256.4c0.6-19.1,15.2-34.9,34.3-36.9l128.1-13.4c22.4-2.3,41.9,15,42.3,37.5l3.5,249.2
			c0.3,19.2-13.7,35.6-32.7,38.4l-139.6,20.6C-716.9,1256.8-737.9,1238.1-737.2,1214.3z"/>
	</g>
	<g>
		<g>
			<g>
				
					<text transform="matrix(1 0 0 1 -667.0546 1054.2087)" style="fill:#4D4D4D; font-family:'Antonio-Light'; font-size:16.5874px;">YOUR TEXT HERE</text>
				
					<text transform="matrix(1 0 0 1 -651.1269 1031.0857)" style="fill:#4D4D4D; font-family:'Antonio-Bold'; font-size:51.7818px;">04</text>
				
					<text transform="matrix(1 0 0 1 -642.0429 977.9402)" style="fill:#4D4D4D; font-family:'Antonio-Light'; font-size:22.0029px;">STEP</text>
			</g>
		</g>
		<g>
			<g>
				
					<text transform="matrix(1 0 0 1 -673.1454 1110.1326)" style="fill:#4D4D4D; font-family:'Antonio-Light'; font-size:12.1428px; letter-spacing:1;">YOUR TEXT HERE</text>
			</g>
			<g>
				
					<text transform="matrix(1 0 0 1 -653.6249 1094.4836)" style="fill:#4D4D4D; font-family:'Antonio-Bold'; font-size:16.9504px;">OPTION C</text>
			</g>
			<rect x="-671.1" y="1139.8" class="st3" width="89.6" height="63"/>
			<text transform="matrix(1 0 0 1 -667.5585 1147.2971)" style="fill:#4D4D4D; font-family:'Antonio-Light'; font-size:8.5833px;">Lorem ipsum dolor sit amet, </text>
			<text transform="matrix(1 0 0 1 -668.6584 1157.5972)" style="fill:#4D4D4D; font-family:'Antonio-Light'; font-size:8.5833px;">consectetuer adipiscing elit, </text>
			<text transform="matrix(1 0 0 1 -662.7585 1167.8971)" style="fill:#4D4D4D; font-family:'Antonio-Light'; font-size:8.5833px;">sed diam nonummy nibh </text>
			<text transform="matrix(1 0 0 1 -668.6584 1178.1971)" style="fill:#4D4D4D; font-family:'Antonio-Light'; font-size:8.5833px;">euismod tincidunt ut laoreet </text>
			<text transform="matrix(1 0 0 1 -666.3585 1188.4971)" style="fill:#4D4D4D; font-family:'Antonio-Light'; font-size:8.5833px;">dolore magna aliquam erat </text>
			<text transform="matrix(1 0 0 1 -662.7585 1198.7971)" style="fill:#4D4D4D; font-family:'Antonio-Light'; font-size:8.5833px;">volutpat. Ut wisi enim ad </text>
			<line class="st9" x1="-640.3" y1="1125.9" x2="-612.4" y2="1125.9"/>
		</g>
	</g>
</g>
<image style="overflow:visible;enable-background:new    ;" width="337" height="141" xlink:href="32B306D4.jpg"  transform="matrix(2.1656 0 0 2.1656 746.5 29)">
</image>
<path class="st13" d="M682.7,40.5V215c0,22.4-18.1,40.5-40.5,40.5H452.8C471.4,155.4,559.5,71.2,681.1,29
	C682.1,32.7,682.7,36.5,682.7,40.5z"/>
<path class="st14" d="M681.1,29C559.5,71.2,471.4,155.4,452.8,255.5H341.4C341.4,146.4,423.5,51,545.7,0h96.5
	C660.6,0,676.1,12.2,681.1,29z"/>
<path class="st15" d="M545.7,0C423.5,51,341.4,146.4,341.4,255.5H206.8c-1.7-10.8-2.5-21.7-2.5-32.8C204.3,133.8,258.8,54,345,0
	H545.7z"/>
<linearGradient id="SVGID_8_" gradientUnits="userSpaceOnUse" x1="-580.5" y1="35.5357" x2="-235.4" y2="35.5357">
	<stop  offset="0" style="stop-color:#4A1185"/>
	<stop  offset="1" style="stop-color:#842F9D"/>
</linearGradient>
<path class="st16" d="M-376.2,130.5c0,11.1,0.9,22,2.5,32.8H-540c-22.4,0-40.5-18.1-40.5-40.5V-51.7c0-22.4,18.1-40.5,40.5-40.5
	h304.6C-321.7-38.1-376.2,41.6-376.2,130.5z"/>
<path class="st17" d="M698.1,421.1v174.5c0,22.4-18.1,40.5-40.5,40.5H468.2C486.8,536,574.9,451.8,696.5,409.6
	C697.5,413.3,698.1,417.1,698.1,421.1z"/>
<path class="st18" d="M696.5,410.6C574.9,452.8,486.8,537,468.2,637.1H356.8c0-109.1,82.1-204.5,204.3-255.5h96.5
	C676,381.6,691.5,393.8,696.5,410.6z"/>
<path class="st19" d="M561.1,380.6c-122.2,51-204.3,146.4-204.3,255.5H222.2c-1.7-10.8-2.5-21.7-2.5-32.8
	c0-88.9,54.5-168.7,140.7-222.7H561.1z"/>
<linearGradient id="SVGID_9_" gradientUnits="userSpaceOnUse" x1="-323.1429" y1="35.5357" x2="-186.8571" y2="35.5357">
	<stop  offset="0" style="stop-color:#4A1185"/>
	<stop  offset="1" style="stop-color:#4A1185"/>
</linearGradient>
<rect x="-323.1" y="-21.5" class="st20" width="136.3" height="114.1"/>
<image style="overflow:visible;" width="540" height="359" xlink:href="32B306D5.jpg"  transform="matrix(1 0 0 1 -593.1429 223.0714)">
</image>
</svg>
