<svg xmlns="http://www.w3.org/2000/svg" width="23.84" height="25.604" viewBox="0 0 23.84 25.604">
  <g id="notification-new" transform="translate(-3.373 -1.125)">
    <path id="Path_820" data-name="Path 820" d="M23.681,15.781v-2.3H21.915v2.649a.8.8,0,0,0,.264.618l2.384,2.384v1.413H5.14V19.136l2.384-2.384a.8.8,0,0,0,.264-.618V11.72a7.063,7.063,0,0,1,7.063-7.063,6.965,6.965,0,0,1,3.531.962V3.6a8.573,8.573,0,0,0-2.649-.706V1.125H13.969V2.891A8.962,8.962,0,0,0,6.023,11.72v4.061L3.639,18.165a.8.8,0,0,0-.264.618v2.649a.83.83,0,0,0,.883.883h6.18a4.414,4.414,0,0,0,8.829,0h6.18a.83.83,0,0,0,.883-.883V18.783a.8.8,0,0,0-.264-.618Zm-8.829,9.182A2.649,2.649,0,0,1,12.2,22.314h5.3a2.649,2.649,0,0,1-2.649,2.649Z"/>
    <path id="Path_821" data-name="Path 821" d="M31.813,8.032A3.532,3.532,0,1,1,28.282,4.5,3.532,3.532,0,0,1,31.813,8.032Z" transform="translate(-4.601 -0.726)" fill="#4d9706"/>
  </g>
</svg>
