<svg id="Layer_1" data-name="Layer 1" xmlns="http://www.w3.org/2000/svg" viewBox="0 0 288.8 265.36"><defs><style>.cls-1{fill:#b37a2b;}.cls-2{fill:#16b14b;}.cls-3{fill:#46b549;}.cls-4{fill:#028141;}.cls-5{fill:#fff;}</style></defs><title>Sonali Sikkha Logo-Final_25.12.2020</title><path class="cls-1" d="M237.86,178.37h-2.15v0h-3.94v0h-9.16v0h-3.94v0H197.8v0h-4v1.94a7.61,7.61,0,0,0-2.1-1.48,5.62,5.62,0,0,0-2.26-.44,5.51,5.51,0,0,0-3,.91,10.38,10.38,0,0,0-2.64,2.52,10.53,10.53,0,0,0-2.74-2.58,5.21,5.21,0,0,0-2.66-.85h-3.66l-.09-.28q-.07-.33-.15-.81a5.55,5.55,0,0,1-.08-1,5,5,0,0,1,.17-1.3,2.56,2.56,0,0,1,.61-1.06,2.93,2.93,0,0,1,1.23-.7,6.58,6.58,0,0,1,2-.26,14.9,14.9,0,0,1,2.89.31,28.32,28.32,0,0,1,3,.76c1,.3,1.85.62,2.68.95s1.54.64,2.13.91l.34.18a.21.21,0,0,1,.15.07l1,.47h0l-.54-1.81A21.52,21.52,0,0,0,187,173a40.17,40.17,0,0,0-4.12-1.77,39.45,39.45,0,0,0-4.46-1.36,19.23,19.23,0,0,0-4.13-.57,9.34,9.34,0,0,0-2.95.68,7.51,7.51,0,0,0-2.09,1.28,5.46,5.46,0,0,0-1.24,1.59,3.53,3.53,0,0,0-.43,1.61,6.09,6.09,0,0,0,.1,1,8.28,8.28,0,0,0,.25,1c.1.32.2.61.31.87s.17.46.22.63l.14.35h-1.73v2.1h1.82v21.45h3.95V180.47h2.07a4.4,4.4,0,0,1,1.49.47,6.57,6.57,0,0,1,1.53,1,6.24,6.24,0,0,1,1.21,1.47,3.25,3.25,0,0,1,.48,1.68,1.85,1.85,0,0,0-.88-.22,2.66,2.66,0,0,0-1.17.29,3.58,3.58,0,0,0-1.07.79,4.25,4.25,0,0,0-.79,1.16,3.23,3.23,0,0,0-.31,1.37,3,3,0,0,0,.35,1.34,4.42,4.42,0,0,0,.94,1.24,4.8,4.8,0,0,0,1.45.92,4.91,4.91,0,0,0,1.9.36,4.81,4.81,0,0,0,3.79-1.84.19.19,0,1,1,.38,0,5,5,0,0,0,3.91,1.84,4.84,4.84,0,0,0,1.74-.32,4.71,4.71,0,0,0,1.42-.87A4.51,4.51,0,0,0,192,190a2.85,2.85,0,0,0,.37-1.4,3.17,3.17,0,0,0-.31-1.36,4.27,4.27,0,0,0-.78-1.17,3.83,3.83,0,0,0-1.08-.81,2.43,2.43,0,0,0-1.16-.31,1.66,1.66,0,0,0-.85.22,3.32,3.32,0,0,1,1.25-1.41,2.9,2.9,0,0,1,1.47-.4,3,3,0,0,1,1.46.38,5.16,5.16,0,0,1,1.45,1.32v16.9h4V180.47h3.9c1.89.74,3,1.83,3.26,3.25a4.56,4.56,0,0,0-1.67.72,6.08,6.08,0,0,0-1.39,1.34,6.58,6.58,0,0,0-1,1.76,6.37,6.37,0,0,0-.4,2,3.94,3.94,0,0,0,.25,1.4,3.36,3.36,0,0,0,.72,1.21,3.74,3.74,0,0,0,1.15.85,3.4,3.4,0,0,0,1.52.33,3.55,3.55,0,0,0,2.56-.92,3.14,3.14,0,0,0,1-2.37,7.49,7.49,0,0,0-.1-1.24,4.33,4.33,0,0,0-.32-1.14l-.19-.43a9.59,9.59,0,0,1,1.28.65,3.38,3.38,0,0,1,1,.9l.34.5a5.37,5.37,0,0,0-1.32,2.19,7.76,7.76,0,0,0-.44,2.4,4.35,4.35,0,0,0,.27,1.52,3.87,3.87,0,0,0,1.95,2.18,3.45,3.45,0,0,0,1.57.34,3.34,3.34,0,0,0,1.44-.29,3.62,3.62,0,0,0,1.09-.74,3.37,3.37,0,0,0,.71-1,3.31,3.31,0,0,0,.24-1.25,4.6,4.6,0,0,0-.34-1.7l-.8-1.51a4.12,4.12,0,0,1,1.91.72,6,6,0,0,1,1.36,1.35,7.37,7.37,0,0,1,.88,1.63,10.6,10.6,0,0,1,.48,1.5v5.31h3.94V187.54l1,.28a2.89,2.89,0,0,1,1,.48,2.82,2.82,0,0,1,.71.87,3.1,3.1,0,0,1,.28,1.44,12.86,12.86,0,0,1-.3,3l3.94,2.13c.1-.7.18-1.32.23-1.88s.08-1,.08-1.44A9.37,9.37,0,0,0,229,189a6.63,6.63,0,0,0-1.49-2.33,7.22,7.22,0,0,0-2.2-1.46,14.07,14.07,0,0,0-2.65-.83v-3.9h9.16v21.45h3.94V180.47h3.64Zm-19.19,13a6.93,6.93,0,0,0-2.43-2.64,5.74,5.74,0,0,0-3-.9,5.1,5.1,0,0,0-1.53.22,8.42,8.42,0,0,0-1.19-2.15,6.11,6.11,0,0,0-1.26-1.28l-.54-.36a4.15,4.15,0,0,0-.86-2,6.67,6.67,0,0,0-2-1.8h4.06l1.34,2.6a8.8,8.8,0,0,0,1.09,1.64,7.85,7.85,0,0,0,1.59,1.44,8.25,8.25,0,0,0,2,1,6.86,6.86,0,0,0,2.37.4h.31Zm0-7.48a13.29,13.29,0,0,1-1.42-.27,3.59,3.59,0,0,1-2.16-1.51,6.6,6.6,0,0,1-.79-1.68h4.37Z"/><path class="cls-1" d="M153.71,178c0-.17.13-.38.23-.63s.21-.55.31-.87.18-.66.25-1a6.06,6.06,0,0,0,.09-1,3.64,3.64,0,0,0-.42-1.61,5.46,5.46,0,0,0-1.24-1.59,7.66,7.66,0,0,0-2.09-1.28,9.41,9.41,0,0,0-3-.68,19.15,19.15,0,0,0-4.13.57,41.11,41.11,0,0,0-8.58,3.13,22.3,22.3,0,0,0-3.07,1.78l-.53,1.81h0l.95-.47a.21.21,0,0,1,.16-.07l.34-.18c.59-.27,1.3-.57,2.13-.91s1.72-.65,2.68-.95a27.69,27.69,0,0,1,3-.76,14.82,14.82,0,0,1,2.89-.31,6.63,6.63,0,0,1,2,.26,2.83,2.83,0,0,1,1.22.7,2.48,2.48,0,0,1,.62,1.06,5,5,0,0,1,.17,1.3,6.63,6.63,0,0,1-.08,1q-.07.48-.15.81l-.09.28H146v0H142v0H120.25v0h-3.94v0h-3.64v0h-4v0H93v0H89v0H85.33v0H81.46v0H60.74a25.49,25.49,0,0,0-1.54,2.1l-.22.34a16.69,16.69,0,0,0-1.88,4.13,15.61,15.61,0,0,0-.61,4.41,13.34,13.34,0,0,0,.78,4.6,12.62,12.62,0,0,0,2.26,3.87,13.59,13.59,0,0,0,3.55,2.89,15,15,0,0,0,4.67,1.67L66,195a4.75,4.75,0,0,1-2.49-.71,6.38,6.38,0,0,1-1.8-1.62,6.8,6.8,0,0,1-1.09-2.08,6.54,6.54,0,0,1-.37-2.09q0-4.7,4.25-8.05H72l-3.83,3.83,5,3.64a7.25,7.25,0,0,1,.86.81,1.34,1.34,0,0,1,.4.85,1.19,1.19,0,0,1-.29.82,2.2,2.2,0,0,1-.74.55,4,4,0,0,1-1,.33,5.39,5.39,0,0,1-1,.11,8,8,0,0,1-1.69-.18,14.52,14.52,0,0,1-2.74-.91,2.64,2.64,0,0,1-.59-.32l.19.69a5.47,5.47,0,0,0,.23.77c.1.28.21.59.31.92l1.57,5.27a33.61,33.61,0,0,0,6.72-2.32,10,10,0,0,0,3.35-2.48l2.76,2.49v6.58h3.87V180.47H89v21.45h4V180.47h15.77v5.2a7.94,7.94,0,0,0-2.94-1.92,10.79,10.79,0,0,0-3.8-.65,7.51,7.51,0,0,0-2.75.47,5.77,5.77,0,0,0-2,1.27,5.3,5.3,0,0,0-1.18,1.8,5.72,5.72,0,0,0-.41,2.13,4,4,0,0,0,.48,1.88,5.2,5.2,0,0,0,1.27,1.57,6.25,6.25,0,0,0,1.78,1.07,5.42,5.42,0,0,0,2,.39,3.7,3.7,0,0,0,1.44-.29,4.25,4.25,0,0,0,1.24-.77,4,4,0,0,0,.88-1.16,3.47,3.47,0,0,0-.4-3.64,3.6,3.6,0,0,0-2.36-1,2.27,2.27,0,0,1,1.57-.47,6.37,6.37,0,0,1,1.77.26,4.83,4.83,0,0,1,2.79,2.07,4.18,4.18,0,0,1,.61,1.86v11.38h4V180.47h3.64v21.45h3.94V180.47H142v3c-.25,0-.5-.1-.74-.16a3.35,3.35,0,0,0-.79-.09,7.24,7.24,0,0,0-2.45.36,5,5,0,0,0-1.59.89,3.31,3.31,0,0,0-.86,1.1,2.43,2.43,0,0,0-.27,1v.14a6.75,6.75,0,0,0-2.66-3.57,7.35,7.35,0,0,0-4-1.08,5.24,5.24,0,0,0-4.26,2,6.86,6.86,0,0,0-1.11,2.09,7.93,7.93,0,0,0-.38,2.41,13.45,13.45,0,0,0,.35,2.94,9,9,0,0,0,1.14,2.81,6.93,6.93,0,0,0,2.09,2.12,5.74,5.74,0,0,0,3.16.83,3.79,3.79,0,0,0,4-4.26,4.64,4.64,0,0,0-.9-3.23,2.86,2.86,0,0,0-2.16-1,3.17,3.17,0,0,0-1.74.45,1.22,1.22,0,0,0-.71,1A3.49,3.49,0,0,1,128,189a2,2,0,0,1,.63-1.63,2.41,2.41,0,0,1,1.63-.54,4.67,4.67,0,0,1,1.41.25,4.09,4.09,0,0,1,1.5.87,4.93,4.93,0,0,1,1.17,1.64,6.29,6.29,0,0,1,.47,2.58c0,.19,0,.4,0,.62l-.06.65,3.6,1.15s.07,0,.15,0l.12.07a13.82,13.82,0,0,1-.58-3.65,5.35,5.35,0,0,1,.31-1.91,4.42,4.42,0,0,1,.78-1.39,3.17,3.17,0,0,1,1.06-.83,2.58,2.58,0,0,1,1.11-.27,2.73,2.73,0,0,1,.76.11v15.13H146V180.47h3.71v21.45h3.83V180.47h1.95v-2.1h-1.86ZM81.46,190.65,78.89,189a8.08,8.08,0,0,0-.92-1.26,11.25,11.25,0,0,0-1.15-1.14,13.2,13.2,0,0,0-1.24-1c-.42-.29-.8-.55-1.13-.76l-1.07-.65,4.44-3.72h3.64Z"/><path class="cls-1" d="M63.27,215c3.38,0,5.3,1.13,6.38,3.61.32.74.14,1.13-.55,1.44l-2.29,1.11c-.62.3-.87.2-1.23-.55a2.29,2.29,0,0,0-2.31-1.34c-1.56,0-2.18.44-2.18,1.34,0,1.11,1.35,1.34,3,1.58,2.65.41,6.08,1.13,6.08,6,0,3.78-3,5.87-7.09,5.87-3.41,0-5.78-1.31-6.65-4-.26-.78,0-1.14.61-1.42l2.15-.88c.69-.25,1-.18,1.35.57a2.6,2.6,0,0,0,2.59,1.37c1.53,0,2.45-.36,2.45-1.47s-1.17-1.29-2.68-1.52c-2.68-.41-6.43-1-6.43-6C56.47,217.36,58.9,215,63.27,215Z"/><path class="cls-1" d="M78.43,215c4.5,0,7,2.76,7,7.21v4.64c0,4.45-2.52,7.21-7,7.21s-7.05-2.76-7.05-7.21V222.2C71.38,217.75,73.9,215,78.43,215Zm0,4.51A2.25,2.25,0,0,0,75.91,222v5.1a2.51,2.51,0,0,0,5,0V222A2.24,2.24,0,0,0,78.43,219.5Z"/><path class="cls-1" d="M101.09,216.46v16.12c0,.8-.25,1.08-1,1.08H97.55a.94.94,0,0,1-.94-.51L93.09,227a19.2,19.2,0,0,1-2-5.3h-.18a28.62,28.62,0,0,1,.76,6.64v4.2c0,.8-.26,1.08-1,1.08H88.35c-.73,0-1-.28-1-1.08V216.46c0-.8.25-1.08,1-1.08h2.7a.92.92,0,0,1,1,.51l3.75,6.59a26.51,26.51,0,0,1,1.92,4.72h.19a20.4,20.4,0,0,1-1-6.52v-4.22c0-.8.23-1.08,1-1.08h2.33C100.84,215.38,101.09,215.66,101.09,216.46Z"/><path class="cls-1" d="M117.22,233.66h-2.47c-1.19,0-1.54-.28-1.72-1.08l-.53-1.85h-4.94l-.52,1.85c-.23.8-.53,1.08-1.67,1.08H103c-.71,0-.85-.36-.62-1l5.26-16.33c.23-.75.52-.9,1.19-.9h2.61a1,1,0,0,1,1.19.85l5.28,16.38C118.11,233.3,117.9,233.66,117.22,233.66Zm-7.1-13.6h-.22a15.27,15.27,0,0,1-.44,3.58l-.84,3h2.85l-.84-3A18.21,18.21,0,0,1,110.12,220.06Z"/><path class="cls-1" d="M123.64,216.46v12.7h5.51c.71,0,1,.25,1,1.08v2.34c0,.8-.25,1.08-1,1.08h-9.06c-.73,0-1-.28-1-1.08V216.46c0-.8.25-1.08,1-1.08h2.59C123.41,215.38,123.64,215.66,123.64,216.46Z"/><path class="cls-1" d="M132.42,215.38h2.7c.69,0,.91.25.91,1v16.22c0,.78-.22,1-.91,1h-2.7c-.69,0-.91-.25-.91-1V216.41C131.51,215.63,131.73,215.38,132.42,215.38Z"/><path class="cls-1" d="M148.75,215c3.39,0,5.31,1.13,6.38,3.61.32.74.14,1.13-.55,1.44l-2.28,1.11c-.62.3-.87.2-1.24-.55a2.28,2.28,0,0,0-2.31-1.34c-1.55,0-2.17.44-2.17,1.34,0,1.11,1.35,1.34,3,1.58,2.66.41,6.09,1.13,6.09,6,0,3.78-3,5.87-7.09,5.87-3.41,0-5.79-1.31-6.66-4-.25-.78,0-1.14.62-1.42l2.15-.88c.69-.25,1-.18,1.35.57a2.57,2.57,0,0,0,2.58,1.37c1.54,0,2.45-.36,2.45-1.47s-1.17-1.29-2.68-1.52c-2.67-.41-6.42-1-6.42-6C142,217.36,144.38,215,148.75,215Z"/><path class="cls-1" d="M172.94,215.38h2.7c.69,0,.91.25.91,1v16.22c0,.78-.22,1-.91,1h-2.7c-.69,0-.92-.25-.92-1V216.41C172,215.63,172.25,215.38,172.94,215.38Z"/><path class="cls-1" d="M191.86,233.66h-2.48c-1.21,0-1.64-.18-2-1.08l-2-4.61c-.37-.82-.69-1.29-1.56-1.29h-.41v5.9c0,.8-.23,1.08-1,1.08h-2.58c-.74,0-1-.28-1-1.08V216.46c0-.8.25-1.08,1-1.08h2.58c.73,0,1,.28,1,1.08v5.72h.5l3.3-5.85c.43-.8.64-1,1.83-1h2.63c.69,0,.91.46.55,1.13L188,224a5.05,5.05,0,0,1,1.4,2l3,6.44C192.77,233.1,192.61,233.66,191.86,233.66Z"/><path class="cls-1" d="M206.83,233.66h-2.47c-1.21,0-1.64-.18-2-1.08l-2-4.61c-.37-.82-.69-1.29-1.56-1.29h-.41v5.9c0,.8-.23,1.08-1,1.08h-2.58c-.74,0-1-.28-1-1.08V216.46c0-.8.25-1.08,1-1.08h2.58c.73,0,1,.28,1,1.08v5.72h.5l3.3-5.85c.43-.8.64-1,1.83-1h2.63c.68,0,.91.46.55,1.13L203,224a5.05,5.05,0,0,1,1.4,2l3,6.44C207.75,233.1,207.59,233.66,206.83,233.66Z"/><path class="cls-1" d="M222.32,216.46v16.12c0,.8-.25,1.08-1,1.08h-2.61c-.71,0-1-.28-1-1.08v-5.92h-4.44v5.92c0,.8-.23,1.08-1,1.08H209.8c-.73,0-1-.28-1-1.08V216.46c0-.83.25-1.11,1-1.11h2.59c.73,0,1,.28,1,1.11v5.69h4.44v-5.69c0-.83.25-1.11,1-1.11h2.61C222.07,215.35,222.32,215.63,222.32,216.46Z"/><path class="cls-1" d="M170.51,216.46v16.12c0,.8-.25,1.08-1,1.08h-2.61c-.71,0-1-.28-1-1.08v-5.92h-4.44v5.92c0,.8-.23,1.08-1,1.08H158c-.73,0-1-.28-1-1.08V216.46c0-.83.25-1.11,1-1.11h2.59c.73,0,1,.28,1,1.11v5.69H166v-5.69c0-.83.25-1.11,1-1.11h2.61C170.26,215.35,170.51,215.63,170.51,216.46Z"/><path class="cls-1" d="M238.44,233.66H236c-1.19,0-1.53-.28-1.72-1.08l-.52-1.85h-4.94l-.53,1.85c-.23.8-.53,1.08-1.67,1.08h-2.4c-.71,0-.85-.36-.62-1l5.26-16.33c.23-.75.53-.9,1.19-.9h2.61a1,1,0,0,1,1.19.85l5.28,16.38C239.33,233.3,239.13,233.66,238.44,233.66Zm-7.09-13.6h-.23a15.58,15.58,0,0,1-.43,3.58l-.85,3h2.86l-.85-3A17.78,17.78,0,0,1,231.35,220.06Z"/><rect class="cls-1" x="54.95" y="208.93" width="190.99" height="0.85"/><path class="cls-1" d="M120.07,66.53V19.82s6,28.08,30.38,28.08c26.08,0,31-30.38,31-30.38V67.11S172,53.92,150.17,53.92,120.07,66.53,120.07,66.53Z"/><path class="cls-1" d="M180.09,120.31V167s-5.89-28.08-29.73-28.08c-25.52,0-30.29,30.38-30.29,30.38V119.73s9.26,13.19,30.57,13.19S180.09,120.31,180.09,120.31Z"/><path class="cls-1" d="M177.07,62.81h46.72s-28.09,6-28.09,30.38c0,26.08,30.38,31,30.38,31H176.5s13.18-9.46,13.18-31.24S177.07,62.81,177.07,62.81Z"/><path class="cls-1" d="M123.82,62.81H77.1s28.09,6,28.09,30.38c0,26.08-30.38,31-30.38,31h49.58s-13.18-9.46-13.18-31.24S123.82,62.81,123.82,62.81Z"/><path class="cls-2" d="M153.57,125.05c-.58.92-1.61,1.22-1.66,2.57,0,1.16-1.21.52-1.79.36s-1.16-1-1.91-1a.62.62,0,0,1,.25-.74c.33-.28,1.2-.32.74-1-.35-.51-.77,0-1.11.27a1.6,1.6,0,0,1-2.38-.91c-.28-1.84-2-.54-2.67-1.46-.09-.13-.72.34-.49.56,1.19,1.12-.22,2-.2,3,.06,1.82-1.39,1.84-1.75.77-.44-1.25-3.79-1.46-1.5-3.72.15-.14,0-.64-.33-.78-.55-.23-2.68,1.44-2.66,2.06.06,1.86-1.82.68-2.56,1.56-.36.43-.53-.63-.68-1.15-.3-1-1.12-2.11.65-2.64.26-.08.32-.57.15-.61a11.8,11.8,0,0,1-2.58-.78c-.37-.17-.93.51-.88,1.21.11,1.48-.82,1.11-1.75,1.11-1.09,0-1-.43-1.38-1.3-1.06-2.48,1.51-2.17,2.13-3.29.16-.3,1.08-.09.83-.74s-.78-1.25-1.37-1.09a14,14,0,0,0-2.21.41,4.49,4.49,0,0,1-5.27-.55,5.68,5.68,0,0,0-1.3-.59c.52-.83,2.41-2.08-.45-2.17a.62.62,0,0,1-.51-.87c.34-.77-.12-1-.68-1.27-.39-.17-1-.26-.78-.85s.72-.4,1.15-.41a1.84,1.84,0,0,1,1.64.8c.28.4.62,1.15,1.09.64a4,4,0,0,0,.52-2c.09-.71-.52-.59-.92-.61-.67,0-1.38,0-1.23-1s.8-1.05,1.58-.93a.89.89,0,0,1,.35.14c.61.37,1.16.34,1.34-.41s-.22-1.11-1-1.23c-1.57-.24-2.72.6-3.83,1.4a1.49,1.49,0,0,1-2.4-.69c-.19-1-1.58-2.34.18-3.24.46-.24,1.11-.3.83-1s-.72-.3-1.13-.08c-1.28.68-1.08-.88-1.73-1.24s0-.89.59-1.19c.78-.42.42-.51-.11-1-.75-.73-.46-2.08-.19-3s1.17.14,1.64.12a4.08,4.08,0,0,1,3,1c.48.38.81-.23.66-.72-.36-1.2.21-1.27,1.17-1.15.63.08,1.33,0,1.27-1a2.64,2.64,0,0,0-1.28-2.41c-.78-.39-1.23.31-1.37.92-.4,1.76-2,.39-2.84,1.09-.52.41-.57-.67-.85-1.09-.91-1.36-1.63-.1-2.16.42a1.63,1.63,0,0,1-1.72.4c-.5-.12-.84-.66-.7-1a10.23,10.23,0,0,1,1.57-3c.63-.74,1.06.66,1.45.58a11,11,0,0,0,2.81-1.19c.16-.08-.18-.5-.51-.64A4.23,4.23,0,0,1,113.82,86c-.36-1,.48-2.71,1.48-2.63.68,0,.93.1.74-.67a.73.73,0,0,1,.48-.92c1.22-.48,1.5-.88.07-1.61A1.45,1.45,0,0,1,116.3,78c.31-.48.86-.74,1-1.45s.7-.61,1.18-.23a.54.54,0,0,1,.1.16c.55,1.06,1.51.9,2.44.85-.38-.92,1.24-2.27-.64-2.91-.26-.09-.41-.61-.85-.62s-.86-.27-.81-.83.55-.56,1-.43.91-.15.84-.48a1.66,1.66,0,0,1,1.26-1.84c1.48-.58,2.13-2,2.8-3,1.28-2,2.4.07,3.52-.26-.17,1.5,2.29,1,1.6,2.88,2.25-1.46,2.17-3.28,1.52-5-.54-1.43,1-1.53,1.24-2.43.21-.71.78-.05,1.19.21.83.54,1.41-.51,2.32-.36.75.12,1.23-.08.87.91-.13.36-.34.82,0,1.09a20.86,20.86,0,0,0,3.67,2.94c.75.4,1.38.29.92,1.42-.35.86.12,1.35.9.65.53-.48,2-.33,1.6-.84-.58-.76-.32-2.07-1.7-2.42-1.17-.3-1.55-1.75-2.4-2.58a.87.87,0,0,1,.23-1.2.91.91,0,0,1,1.22-.05c.38.26.89.52,1.1,0s-.36-.7-.81-.79-.9-.37-.52-.7c.84-.73,2.6-1.51,2.9-1.36,1.73.83,3-.67,4.47-.66,1.71,0,3.35-.41,4.84.88,1.21,1.05,1,1.65-.39,2.09-.66.22-1.36.29-2,.45s-.78.5-.55,1,.52.26.85,0c.69-.58.76,0,1,.53.49,1.08,1,1.12,1.74.09a9.87,9.87,0,0,1,2.4-2.79c.91-.58-1-2,.76-1.94.81,0,1.37,1.16,2.18.36.42.42.1.71.14,1s-.76.81.15,1c.45.08.89.44,1.3-.24.64-1,1.22-2.8,2.72-.67.09.13.47.06.72.08.56.06,1.53-.5,1.55.42A4.18,4.18,0,0,1,164.68,63c-.23.32-1.35-.23-1.08.79a1.86,1.86,0,0,0,1.58,1.22c.68.14,1.47-.06,1.53-.77.22-2.41,1.84-.77,2.74-.91.49-.08.3.64-.07,1s-.7.51-.31.9.69-.08,1-.25.63-.44,1-.59a1.65,1.65,0,0,1,1.79.3c.55.49.26,1.08-.13,1.52a1.84,1.84,0,0,0-.3,1.8c.12.5.21,1.06.8,1.19s.69-.47,1-.79c.57-.7,1-2.28,1.83-.15,0,.08.22.14.33.15.55,0,1.34-.18,1.31.63s-.95.41-1.42.65a4.08,4.08,0,0,0-.53.46c.86.54,2.13.33,2.35,1.75.12.8.77.21,1.14-.09a1.36,1.36,0,0,1,1.76-.13,1.25,1.25,0,0,1,.43,1.38c-.22.81-.78.87-1.49.71-.43-.09-.93-.08-1.08.49s.61.62.68.81c.74,2.07,2.2,1.23,3.51,1,.6-.12,1.18-.17,1.5.44a.78.78,0,0,1-.39,1c-.55.36-1.55.46-1.29,1.34.3,1,1.37.15,2.12.57-.28.85-1.15,1.64-.46,2.67.1.16-.15.63-.39.5-1.63-.93-1.35.78-1.88,1.33-.3.32-.6.77-.1,1.15a1.52,1.52,0,0,0,1.25.3c.51-.1,1.32-1,1.33-.54,0,1.21,1.81,1.13,1.44,2.38a.67.67,0,0,0,.09.69c1,1.28.76,2.36-.71,3-.28.13-.59.28-.58.67a.7.7,0,0,0,.56.68c.49.14,1,.16,1.48.33s1,.32,1,1-.4.72-.8.94c-1.07.6-1.11,1.19.13,1.58.94.29,1.49,1.1,2.24,1.63.91.64,0,1.5-.61,1.91a1.45,1.45,0,0,0-.72,2c.32.75.11,1.23-.79,1.3-.21,0-.6.23-.59.33.22,2.77-1.05,1.56-2.14.81-.66-.46-1.25-.38-1.58.33s-.14,1.22.82,1.17c.41,0,.91.46.72.64-1,1-.52,2.3-.93,3.35-.33.88-1.89.47-2.35,1.64-.13.34-.62-.12-.77-.5s-.45-.78-1-.5-.53.63-.27,1.1c.54.94-.25,1.33-.81,1.16-1.82-.55-2.92-.15-3.22,1.85-.06.35-.37.49-.73.48s-.78-.18-.78-.64c0-1-.19-1.42-1.11-.57a.55.55,0,0,1-.53,0c-.64-.8-1.31-.84-1.8,0s.6,1.11,1,1.55c.65.71,2.09.77,1.41,2.39-.22.5.72.46,1.18.61a1.21,1.21,0,0,1,.91,1.28c-.07.61-.61.71-1.17.69s-1.12-.22-1.33.42c-.31,1,.65.66,1.06.91a.77.77,0,0,1,.34,1c-.24.65-.47,1.38-1.28,1.53a3.89,3.89,0,0,1-1.52,0c-1.12-.23-2.29-.76-2.35,1.17,0,.35-.44.43-.77.37-.6-.12-.51-.61-.55-1a1.72,1.72,0,0,0-2.58-1.35c-.7.4-.54.87,0,1.36a1.49,1.49,0,0,1,.13,2.22c-.58.69-1.13.21-1.62-.25l-.31-.22c-.73,1.33-2.25.54-3.16,1.12A4,4,0,0,1,153.57,125.05Z"/><path class="cls-3" d="M148.2,72.35a3.17,3.17,0,0,0,2.16.26c1.17.26,2.44-.3,3.56.41l-7.27.06C147,72.48,147.82,72.89,148.2,72.35Z"/><path class="cls-3" d="M160.91,85.55a19.42,19.42,0,0,1-2.28.1c-2.18-.13-3.85.58-4.73,2.69-1.89-.17-3.56-1.1-5.37-1.57.08-.3.08-.79.25-.86,2-.78,1.8-2.46,1.8-4.09l1.82.45c.28.7-1,1.67.3,2.15,1,.38,1.92,1,3.07.84C157.49,85.26,159.23,84.78,160.91,85.55Z"/><path class="cls-4" d="M155.77,85.26c-1.15.19-2.09-.46-3.07-.84-1.25-.48,0-1.45-.3-2.15C154.69,82,154.91,84,155.77,85.26Z"/><path class="cls-4" d="M171.24,94.26c3.09.42,5-1.43,7-3.31a.55.55,0,0,0,.15-.68.5.5,0,0,0-.62-.28,53.8,53.8,0,0,1-6.17,1.08,2.16,2.16,0,0,0-1.6,2.25C170,94.18,170.71,94.23,171.24,94.26Z"/><path class="cls-4" d="M122.69,90.23c.47-.19,1-.19.92.08-.64,1.55.82,1.68,1.46,2.37s.89,1.35,1.82.67a1.84,1.84,0,0,0,.7-2.62A6.21,6.21,0,0,0,125,88.25c-.69-.44-3.66.51-3.91,1.25a.51.51,0,0,0,.41.72A7.45,7.45,0,0,0,122.69,90.23Z"/><path class="cls-4" d="M125.37,102.16a.84.84,0,0,0,.38,1.28c.71.3.83-.34,1-.8s.53-.5.92-.37.87.42,1.21,0-.1-1-.32-1.39a4.16,4.16,0,0,0-2.24-1.69,1.29,1.29,0,0,0-1.7.44A1,1,0,0,0,125,101,.75.75,0,0,1,125.37,102.16Z"/><path class="cls-4" d="M133.5,106.78a3.31,3.31,0,0,0-1.46-2.21,3.28,3.28,0,0,0-2.89,2.65,1,1,0,0,0,1.15,1C131.48,107.93,132.75,107.74,133.5,106.78Z"/><path class="cls-4" d="M181.72,99.46c.66-.86,2.33.3,2.78-1.26.13-.45-1.82-2.27-2.34-2.18-1.37.24-1.24,1.63-1.69,2.5C180.2,99.06,181,99.43,181.72,99.46Z"/><path class="cls-4" d="M171.16,104.52c-.57.47-1.94,0-1.83,1.33.06.89.69,2,1.49,1.89a3.25,3.25,0,0,0,2.16-1.88C173.26,105,172,104.8,171.16,104.52Z"/><path class="cls-4" d="M157,117.69c0-.16.74-1.18-.51-1.32a2.13,2.13,0,0,0-2,1.24c-.48.85.75,1.09.63,1.84-.08.53,0,1.12.75,1a1.2,1.2,0,0,0,1.12-1.12C157,119,157,118.57,157,117.69Z"/><path class="cls-4" d="M134.64,115.39c.34-.8.69-1.52,1-2.27s.65-1.69-.26-1.63-2.27-.35-2.79,1c-.09.24,0,.8.14.84C133.71,113.63,133.78,114.8,134.64,115.39Z"/><path class="cls-4" d="M154,69.14c.15-.56.64-1.39-.22-1.58s-1.35.49-1.69,1.25a3.65,3.65,0,0,0,.1,2.93.73.73,0,0,0,.71.52c.25,0,.68-.13.56-.33C152.81,70.81,154.75,70.25,154,69.14Z"/><path class="cls-4" d="M167.51,119.58c.58,0,.64-.52.92-.75,1.15-.93,1.36-1.62-.47-1.76a2.25,2.25,0,0,1-.55-.15c-.5-.2-.6-1.49-1.36-.73-.59.59.18,1.28.48,1.87A15.91,15.91,0,0,0,167.51,119.58Z"/><path class="cls-4" d="M159.62,67c.59-.3,1.89.45,1.72-.7a3,3,0,0,0-2.07-1.81c-.76-.18-1.35,1.07-1.39,1.71C157.79,67.43,159,66.73,159.62,67Z"/><path class="cls-4" d="M170,78c1.18-.06,1.46-1.09,1.8-1.91.19-.47-.4-.81-.86-.71-1,.19-1.87.55-2,1.68C168.75,77.88,169.29,78.06,170,78Z"/><path class="cls-4" d="M169,74.63a6.44,6.44,0,0,1,2.14-1.51.71.71,0,0,0,.33-.83c-.08-.3-.37-.48-.57-.33C170.1,72.57,168.55,72.59,169,74.63Z"/><path class="cls-4" d="M163.6,92.22c-3-1.68-6.45-2.11-9.73-3,.8-2.15,2.43-2.93,4.62-2.89a19.48,19.48,0,0,0,2.27-.19c1.53.3,2.94-.59,4.46-.45a12.32,12.32,0,0,0,2.12,4,1,1,0,0,0,.91.5c.59,0,1.31,0,1.29.75a2.58,2.58,0,0,1-.53,2c-.77.65-1.55.59-1.93-.48-.19-.53-.22-1.36-1-.78s-1.05.31-1.65,0S163.63,91.68,163.6,92.22Z"/><path class="cls-4" d="M134.8,80.74a16.92,16.92,0,0,0-.78,6c-.32.08-.64.16-.68.55-.13,1.13-.57,1.14-1.28.39-.48-.5-1-.77-1.11.25s.19,2.39-1.11,2.46c-1.47.07-2.36-1.24-3.13-2.43-.56-.87,0-1.51.33-2.25.74-1.56,1.31-3.21,3.14-3.89a1.52,1.52,0,0,0,.79-.77C132.32,78.59,133,78.54,134.8,80.74Z"/><path class="cls-4" d="M167.2,85.25c.37-1.47-.5-2.74-.66-4.13,1.61-2.36,1.61-2.35,4.23-.69.86.54,1.17.1,1.17-.72,0-1,.22-1.94,1.3-2s1.24.88,1.36,1.76c0,.28.31.53.46.8.56,1.07.22,1.55-1,1.51-1.48,0-2,.72-1.52,2.11.22.6.28,1.12-.47,1.38-.44.15-.62.45-.44.88s.57.78,1.05.58a1.17,1.17,0,0,1,1.77.82c.17.56.14,1.27-.51,1.48s-1.5.78-2.31,0-1.23-1.56-2.54-1.23c-.51.13-.89-.67-.39-1.27s1.18-1.1.62-1.77-.94.61-1.58.5A5.46,5.46,0,0,0,167.2,85.25Z"/><path class="cls-4" d="M168.4,103.29a14.87,14.87,0,0,0-1.07-7.68c.47-.2.95-.46,1.45-.15,1.39.88,2.66.45,3.91-.32a1.33,1.33,0,0,1,1.74.12c.35.33.62.74.36,1.18-.42.68-1,.2-1.53.11-1-.18-1.17.38-.88,1.11s.41,1.34-.38,1.79-.47.93-.14,1.43.8.45,1.31.17,3.53,1.11,3.56,1.66c.06,1.05-.73,1.76-1.53,1.26C173,102.59,170.62,103.88,168.4,103.29Z"/><path class="cls-4" d="M147.53,97.3a12.45,12.45,0,0,1,3.8.88c.06,2.12.06,2.12,2.51,1.22l0,0c.12.71-.54,1.8.57,2,.92.18,1.09-.76,1.16-1.53a2.19,2.19,0,0,1,1.63,2.32c-.05,1.62-1.28,2.11-2.51,2.59-.12-.92-.71-1.18-1.56-1.27-3-.32-4-1.15-4.62-4A12.09,12.09,0,0,0,147.53,97.3Z"/><path class="cls-4" d="M171.24,94.26c-.53,0-1.28-.08-1.25-.94a2.16,2.16,0,0,1,1.6-2.25A53.8,53.8,0,0,0,177.76,90a.5.5,0,0,1,.62.28.55.55,0,0,1-.15.68C176.29,92.83,174.33,94.68,171.24,94.26Z"/><path class="cls-4" d="M122.69,90.23a7.45,7.45,0,0,1-1.15,0,.51.51,0,0,1-.41-.72c.25-.74,3.22-1.69,3.91-1.25a6.21,6.21,0,0,1,2.55,2.48,1.84,1.84,0,0,1-.7,2.62c-.93.68-1.31-.12-1.82-.67s-2.1-.82-1.46-2.37C123.72,90,123.16,90,122.69,90.23Z"/><path class="cls-4" d="M165.75,79.53l-2.65-3c.8-.33,1.41-.52.84-1.77-.33-.74.21-2,.56-2.91.18-.51.76-.23,1.14,0a4.16,4.16,0,0,1,.84,6A2.55,2.55,0,0,0,165.75,79.53Z"/><path class="cls-4" d="M138.38,76.19l-1.63,1.44c-2.73-1.12-2.32-2.58-.53-4.31.3-.29.19-1.06.91-.88a1.77,1.77,0,0,1,1.4.86c.22.5-.12.77-.5,1.06C137,75.17,138.15,75.6,138.38,76.19Z"/><path class="cls-4" d="M125.37,102.16A.75.75,0,0,0,125,101a1,1,0,0,1-.41-1.45,1.29,1.29,0,0,1,1.7-.44,4.16,4.16,0,0,1,2.24,1.69c.22.42.69.86.32,1.39s-.79.19-1.21,0-.75-.12-.92.37-.29,1.1-1,.8A.84.84,0,0,1,125.37,102.16Z"/><path class="cls-4" d="M133.5,106.78c-.75,1-2,1.15-3.2,1.4a1,1,0,0,1-1.15-1,3.28,3.28,0,0,1,2.89-2.65A3.31,3.31,0,0,1,133.5,106.78Z"/><path class="cls-4" d="M181.72,99.46c-.77,0-1.52-.4-1.25-.94.45-.87.32-2.26,1.69-2.5.52-.09,2.47,1.73,2.34,2.18C184.05,99.76,182.38,98.6,181.72,99.46Z"/><path class="cls-4" d="M138.63,94.55l5,2.2c-1.13-.14-1.85,1-3,.88a2.92,2.92,0,0,1-2.31-.94C137.43,95.67,138.64,95.27,138.63,94.55Z"/><path class="cls-4" d="M136.72,101l-3.06,0c1-.73,2.34-1.16,1.63-3-.22-.56.58-1.39,1.17-1.07a2.3,2.3,0,0,1,1.35,2.31c-.07.46-.5.86-.77,1.28Z"/><path class="cls-4" d="M171.16,104.52c.84.28,2.1.44,1.82,1.34a3.25,3.25,0,0,1-2.16,1.88c-.8.15-1.43-1-1.49-1.89C169.22,104.48,170.59,105,171.16,104.52Z"/><path class="cls-4" d="M157,117.69c0,.88,0,1.26,0,1.64a1.2,1.2,0,0,1-1.12,1.12c-.74.12-.83-.47-.75-1,.12-.75-1.11-1-.63-1.84a2.13,2.13,0,0,1,2-1.24C157.74,116.51,157,117.53,157,117.69Z"/><path class="cls-4" d="M134.64,115.39c-.86-.59-.93-1.76-1.95-2.08-.13,0-.23-.6-.14-.84.52-1.33,1.91-.93,2.79-1s.47,1,.26,1.63S135,114.59,134.64,115.39Z"/><path class="cls-4" d="M154,69.14c.73,1.11-1.21,1.67-.54,2.79.12.2-.31.33-.56.33a.73.73,0,0,1-.71-.52,3.65,3.65,0,0,1-.1-2.93c.34-.76,1-1.42,1.69-1.25S154.17,68.58,154,69.14Z"/><path class="cls-4" d="M148.88,104.75a3.2,3.2,0,0,1-2.86-2.3,1.88,1.88,0,0,0-2-1.48.92.92,0,0,0,0-.37c.46-1.24,1.22-.91,1.83-.22A23.48,23.48,0,0,1,148.88,104.75Z"/><path class="cls-4" d="M167.51,119.58a15.91,15.91,0,0,1-1-1.52c-.3-.59-1.07-1.28-.48-1.87.76-.76.86.53,1.36.73a2.25,2.25,0,0,0,.55.15c1.83.14,1.62.83.47,1.76C168.15,119.06,168.09,119.55,167.51,119.58Z"/><path class="cls-4" d="M159.62,67c-.63-.27-1.83.43-1.74-.8,0-.64.63-1.89,1.39-1.71a3,3,0,0,1,2.07,1.81C161.51,67.45,160.21,66.7,159.62,67Z"/><path class="cls-4" d="M170,78c-.67,0-1.21-.16-1.1-.94.17-1.13,1.09-1.49,2-1.68.46-.1,1,.24.86.71C171.42,77,171.14,78,170,78Z"/><path class="cls-4" d="M148.2,72.35c-1.38-1.79.74-1.66,1.31-2,.88-.49.6.71.86,1.13.16.26,0,.72,0,1.1A3.17,3.17,0,0,1,148.2,72.35Z"/><path class="cls-4" d="M137.51,110.25l4.13,2.58C138.92,112.81,137.82,112.12,137.51,110.25Z"/><path class="cls-4" d="M169,74.63c-.46-2,1.09-2.06,1.9-2.67.2-.15.49,0,.57.33a.71.71,0,0,1-.33.83A6.44,6.44,0,0,0,169,74.63Z"/><path class="cls-4" d="M159.71,113.21l3-1.47C162.55,113.8,162.21,114,159.71,113.21Z"/><path class="cls-4" d="M144,100.6a.92.92,0,0,1,0,.37,55.42,55.42,0,0,1-7.29,0l.32-.39Z"/><path class="cls-4" d="M148.16,114.37H154A8.93,8.93,0,0,1,148.16,114.37Z"/><path class="cls-4" d="M150.58,81.82c0,1.63.17,3.31-1.8,4.09-.17.07-.17.56-.25.86-1.35-.52-2.65-1.22-2.21-2.94C146.9,81.58,148.81,81.76,150.58,81.82Z"/><path class="cls-4" d="M153.84,99.4c-2.45.9-2.45.9-2.51-1.22C152.26,98.39,153.43,98.11,153.84,99.4Z"/><path class="cls-4" d="M155.55,99.87c-.07.77-.24,1.71-1.16,1.53-1.11-.22-.45-1.31-.57-2A2.33,2.33,0,0,1,155.55,99.87Z"/><path class="cls-5" d="M144.92,84.75c0,1.27.81,2.22,2.44,2.85a31.62,31.62,0,0,0,5.88,1.59,69.07,69.07,0,0,1,6.94,1.66,12.16,12.16,0,0,1,5.93,3.89,11.08,11.08,0,0,1,2.43,7.45,10.5,10.5,0,0,1-4.51,8.68q-4.51,3.45-11.5,3.45h-2.65c-4.72,0-9.27-.74-12.37-3.36s-5.33-5.31-5.33-9.27v-.24l12.21-.45h0a3.84,3.84,0,0,0,1.33,3,5.1,5.1,0,0,0,3.54,1.19h4.07a4.89,4.89,0,0,0,3-.91,2.76,2.76,0,0,0,1.19-2.26,3.07,3.07,0,0,0-1.72-2.7,12,12,0,0,0-4.38-1.42,49.73,49.73,0,0,1-5.66-1.23,48.12,48.12,0,0,1-5.66-1.94A9.61,9.61,0,0,1,135.77,91,11.76,11.76,0,0,1,134,84.43a10.54,10.54,0,0,1,4.51-8.68q4.51-3.45,11.5-3.44h1.6a17.8,17.8,0,0,1,11.72,3.84A12.17,12.17,0,0,1,168,85.94v.24l-10.88.95V85.62a3.83,3.83,0,0,0-1.37-3,5.17,5.17,0,0,0-3.5-1.19h-2.91a5.13,5.13,0,0,0-3.19,1A2.92,2.92,0,0,0,144.92,84.75Z"/></svg>